<?xml version="1.0" encoding="UTF-8" standalone="no"?>
<!DOCTYPE svg PUBLIC "-//W3C//DTD SVG 1.1//EN" "http://www.w3.org/Graphics/SVG/1.1/DTD/svg11.dtd">
<svg zoomAndPan="magnify" contentStyleType="text/css" width="240" preserveAspectRatio="xMidYMid meet" height="240"   xmlns="http://www.w3.org/2000/svg" xmlns:xlink="http://www.w3.org/1999/xlink">
    <defs id="defs4848">
        <linearGradient id="linearGradient5032">
            <stop style="stop-color:#ce1212;stop-opacity:1" offset="0" id="stop5034"/>
            <stop style="stop-color:#ff1212;stop-opacity:1" offset="1" id="stop5036"/>
        </linearGradient>
        <linearGradient id="linearGradient5024">
            <stop style="stop-color:#ffffff;stop-opacity:1" offset="0" id="stop5026"/>
            <stop style="stop-color:#ffffff;stop-opacity:0" offset="1" id="stop5028"/>
        </linearGradient>
        <radialGradient gradientTransform="matrix(1.14292e-8,1.531256,-0.876504,-2.165967e-5,462.7486,-245.0023)"
            gradientUnits="userSpaceOnUse" cx="295.47125" r="179.55" cy="186.09634" id="g5">
            <stop style="stop-color:#ffffff;stop-opacity:1" offset="0" id="stop4889"/>
            <stop style="stop-color:#ffffff;stop-opacity:1" offset="0.5" id="stop4891"/>
            <stop style="stop-color:#d5d5d5;stop-opacity:1" offset="1" id="stop4893"/>
        </radialGradient>
        <linearGradient gradientTransform="matrix(0.960006,0,0,0.960006,11.68071,9.787565)" x1="250.39845" y1="101.53633"
            x2="412.0943" gradientUnits="userSpaceOnUse" y2="264.54187" id="g4">
            <stop style="stop-color:#ffd9d9;stop-opacity:1" offset="0" id="stop4884"/>
            <stop style="stop-color:#ff2727;stop-opacity:1" offset="1" id="stop4886"/>
        </linearGradient>
        <linearGradient gradientTransform="matrix(0.960006,0,0,0.960006,11.68071,9.787558)" x1="187.87357" y1="224.59892"
            x2="581.83746" gradientUnits="userSpaceOnUse" y2="483.10001" id="g3">
            <stop style="stop-color:#ec6c60;stop-opacity:1" offset="0" id="stop4879"/>
            <stop style="stop-color:#d11412;stop-opacity:1" offset="1" id="stop4881"/>
        </linearGradient>
        <linearGradient gradientTransform="matrix(0.960006,0,0,0.960006,11.68071,9.787565)" x1="530.80951" y1="486.63101"
            x2="174.80548" gradientUnits="userSpaceOnUse" y2="211.22995" id="g2">
            <stop style="stop-color:#9a0000;stop-opacity:1" offset="0" id="stop4874"/>
            <stop style="stop-color:#f22803;stop-opacity:1" offset="1" id="stop4876"/>
        </linearGradient>
        <linearGradient gradientTransform="matrix(4.556763,0,0,-4.315033,37.49756,2758.519)" x1="41.194874" y1="616.47717"
            x2="118.93135" gradientUnits="userSpaceOnUse" y2="527.55511" id="g1">
            <stop style="stop-color:#bb0000;stop-opacity:1" offset="0" id="stop4869"/>
            <stop style="stop-color:#5f0000;stop-opacity:1" offset="1" id="stop4871"/>
        </linearGradient>
        <radialGradient gradientTransform="matrix(0,0.2725026,-0.1559828,-3.8545592e-6,437.26559,613.56411)" xlink:href=
            "#g5"
            gradientUnits="userSpaceOnUse" cx="295.47125" r="179.55" cy="186.09634" id="radialGradient4978"/>
        <linearGradient gradientTransform="matrix(0.1708429,0,0,0.1708429,356.99346,658.90657)" x1="250.39845" y1="101.53633"
            x2="412.0943" xlink:href="#g4"
            gradientUnits="userSpaceOnUse" y2="264.54187" id="linearGradient4981"/>
        <linearGradient gradientTransform="matrix(0.1708429,0,0,0.1708429,356.99346,658.90657)" x1="187.87357" y1="224.59892"
            x2="581.83746" xlink:href="#g3"
            gradientUnits="userSpaceOnUse" y2="483.10001" id="linearGradient4984"/>
        <linearGradient gradientTransform="matrix(0.1708429,0,0,0.1708429,356.99346,658.90657)" x1="530.80951" y1="486.63101"
            x2="174.80548" xlink:href="#g2"
            gradientUnits="userSpaceOnUse" y2="211.22995" id="linearGradient4987"/>
        <linearGradient gradientTransform="matrix(0.8109225,0,0,-0.7679041,361.58783,1148.0714)" x1="41.194874" y1="616.47717"
            x2="118.93135" xlink:href="#g1"
            gradientUnits="userSpaceOnUse" y2="527.55511" id="linearGradient4990"/>
        <linearGradient x1="466.6875" y1="664.79169" x2="466.6875" xlink:href="#linearGradient5024"
            gradientUnits="userSpaceOnUse" y2="709.06689" id="linearGradient5030"/>
        <linearGradient x1="-6.6274176" y1="48.000011" x2="15.999988" xlink:href="#linearGradient5032"
            gradientUnits="userSpaceOnUse" y2="-6.6274176" id="linearGradient5038"/>
        <filter id="filter5068">
            <feGaussianBlur stdDeviation="0.16424528" id="feGaussianBlur5070"/>
        </filter>
        <linearGradient x1="-6.6274176" y1="48.000011" x2="15.999988" xlink:href="#linearGradient5032"
            gradientUnits="userSpaceOnUse" y2="-6.6274176" id="linearGradient5099"/>
        <linearGradient x1="466.6875" y1="664.79169" x2="466.6875" xlink:href="#linearGradient5024"
            gradientUnits="userSpaceOnUse" y2="709.06689" id="linearGradient5101"/>
        <linearGradient x1="-6.6274176" y1="48.000011" x2="15.999988" xlink:href="#linearGradient5032"
            gradientUnits="userSpaceOnUse" y2="-6.6274176" id="linearGradient5125"/>
        <linearGradient x1="466.6875" y1="664.79169" x2="466.6875" xlink:href="#linearGradient5024"
            gradientUnits="userSpaceOnUse" y2="709.06689" id="linearGradient5127"/>
        <linearGradient gradientTransform="matrix(3.7565752,0,0,3.7565752,-1281.1474,-1839.9864)" x1="466.6875" y1="664.79169"
            x2="466.6875" xlink:href="#linearGradient5024"
            gradientUnits="userSpaceOnUse" y2="709.06689" id="linearGradient5153"/>
    </defs>
    <g id="layer1" transform="translate(-463.84454,-666.74359)">
        <g id="g5072">
            <path id="path3717" d="M 32.000001,1.0658141e-014 L 54.627418,9.3725836 L 64,32.000001 L 54.627416,54.627418 
                L 31.999999,64 L 9.3725824,54.627416 L 1.0658141e-014,31.999999 L 9.3725836,9.3725824 L 
                32.000001,1.0658141e-014 z" style="fill:#7e0000;fill-opacity:1" transform="matrix(3.5876353,-1.4860452,1.4860452,3.5876353,417.73023,715.73613)"/>
            <path id="path5042" d="M 32.000001,1.0658141e-014 L 54.627418,9.3725836 L 64,32.000001 L 54.627416,54.627418 
                L 31.999999,64 L 9.3725824,54.627416 L 1.0658141e-014,31.999999 L 9.3725836,9.3725824 L 
                32.000001,1.0658141e-014 z" style="fill:#000000;fill-opacity:0.25657893;filter:url(#filter5068)"
                transform="matrix(3.5876353,-1.4860452,1.4860452,3.5876353,425.24338,723.24928)"/>
            <path id="path3741" d="M 32.000001,1.0658141e-014 L 54.627418,9.3725836 L 64,32.000001 L 54.627416,54.627418 
                L 31.999999,64 L 9.3725824,54.627416 L 1.0658141e-014,31.999999 L 9.3725836,9.3725824 L 
                32.000001,1.0658141e-014 z" style="fill:#e78a8a;fill-opacity:1" transform="matrix(3.3778534,-1.3991511,1.3991511,3.3778534,427.22392,719.66855)"/>
            <path id="path3743" d="M 32.000001,1.0658141e-014 L 54.627418,9.3725836 L 64,32.000001 L 54.627416,54.627418 
                L 31.999999,64 L 9.3725824,54.627416 L 1.0658141e-014,31.999999 L 9.3725836,9.3725824 L 
                32.000001,1.0658141e-014 z" style="fill:url(#linearGradient5125);fill-opacity:1" transform="matrix(3.0836017,-1.2772686,1.2772686,3.0836017,440.54023,725.18436)"/>
			<switch>
			  <g systemLanguage="big">
				<text x="117.5" y="136.0" style="font-size:48pt;font-weight:bold;fill:#fdeeee;fill-opacity:1;letter-spacing:-4px; font-family:sans-serif;text-anchor:middle;" transform="translate(463.84454,666.74359)">OOPS!</text>
				<text x="117.5" y="136.0" style="font-size:46pt;font-weight:bold;fill:#fdeeee;fill-opacity:1;letter-spacing:-2px; font-family:sans-serif;text-anchor:middle;" transform="translate(463.84454,666.74359)">OOPS!</text>
				<path d="M 74.625,56.9375 L 56.9375,74.625 L 99.15625,116.84375 L 56.9375,159.0625 L 74.625,176.75 L 116.84375,134.53125 L 159.0625,176.75 L 176.75,159.0625 L 134.53125,116.84375 L 176.75,74.625 L 159.0625,56.9375 L 116.84375,99.15625 L 74.625,56.9375 z" transform="translate(463.84454,666.74359)" style="fill:#fdeeee;fill-opacity:0.6;stroke:none;stroke-width:25;stroke-opacity:1"/>
			  </g>
			  <g>
				<text x="117.5" y="136.0" style="font-size:46pt;font-weight:bold;fill:#fdeeee;fill-opacity:1;letter-spacing:-2px; font-family:sans-serif;text-anchor:middle;" transform="translate(463.84454,666.74359)">OOPS!</text>
				<path d="M 74.625,56.9375 L 56.9375,74.625 L 99.15625,116.84375 L 56.9375,159.0625 L 74.625,176.75 L 116.84375,134.53125 L 159.0625,176.75 L 176.75,159.0625 L 134.53125,116.84375 L 176.75,74.625 L 159.0625,56.9375 L 116.84375,99.15625 L 74.625,56.9375 z" transform="translate(463.84454,666.74359)" style="fill:#fdeeee;fill-opacity:0.6;stroke:none;stroke-width:25;stroke-opacity:1"/>
			  </g>
			</switch>
            <path style="fill:url(#linearGradient5153);fill-opacity:1" d="M 535.2741,674.9233 L 471.99929,738.19812 L 
                471.99929,765.37946 C 558.38932,785.44115 593.76927,739.43264 688.23715,764.37675 L 688.23715,738.19812 
                L 624.84494,674.9233 L 535.2741,674.9233 z"/>
        </g>
    </g>
</svg>